<svg xmlns="http://www.w3.org/2000/svg" xmlns:xlink="http://www.w3.org/1999/xlink" version="1.1" x="0px" y="0px" width="150px" height="150px" viewBox="0 0 150 150" enable-background="new 0 0 150 150" xml:space="preserve"><style>.style0{stroke:	#5B8D96;stroke-width:	2;stroke-miterlimit:	2;fill:	none;}.style1{stroke:	#5B8D96;stroke-width:	2;stroke-miterlimit:	2;fill:	#5B8D96;}.style2{stroke:	#5B8D96;stroke-width:	2;stroke-miterlimit:	2;fill:	#FFFFFF;}</style><g><polyline points="75.043,133.162 61.167,133.162 61.167,117.469 75.043,117.469" class="style0"/><path d="M75.3359375 139.2128906h-9.3544922 c0.6352539 2.883 9.354 3.881 9.354 3.881" class="style1"/><path d="M75.0888672 141.516" class="style0"/><path d="M75.0429688 137.633" class="style1"/><path d="M75.0429688 6.909 c0 0-35.949707-1.078125-37.0009766 40.4746094c-1.0512695 41.552 22.228 27.845 18.969 61.843 l1.265625 2.1054688h16.7666016" class="style0"/><path d="M75.0429688 117.469" class="style0"/><path d="M75.0429688 117.469" class="style0"/><path d="M75.0429688 117.469" class="style0"/><polyline points="74.957,133.162 88.833,133.162 88.833,117.469 74.957,117.469" class="style0"/><path d="M74.7666016 143.094 c0 0 8.875-0.9980469 9.5117188-3.8808594h-9.3544922" class="style1"/><path d="M74.9121094 141.516" class="style0"/><path d="M74.9570313 137.633" class="style1"/><path d="M75.3359375 76.334 c0 0 4.1884766-11.5498047 7.6083984-19.7070313c3.421875-8.1572266 8.5507813-5.8212891 10.262 0.263 c1.7109375 6.0859375-14.734375 20.2607422-18.5166016 21.3134766s-14.1098633-9.9990234-14.8994141-13.1572266 c-0.7890625-3.15625-1.5786133-6.3476563 2.8945313-9.9980469S75 68.731 75 68.7314453l-0.0058594 6.314 l-0.0371094 36.2866211h16.7666016l1.265625-2.1054688c-3.2597656-33.9975586 20.0195313-20.2910156 18.96875-61.8427734 C110.9052734 5.831 74.957 6.909 74.957 6.909" class="style0"/><path d="M74.9570313 117.469" class="style0"/><path d="M74.9570313 117.469" class="style0"/><path d="M74.9570313 117.469" class="style0"/><line x1="61.256" y1="127.758" x2="88.921" y2="127.758" class="style0"/><line x1="61.503" y1="122.934" x2="89.169" y2="122.934" class="style0"/></g><path d="M-234.0961914 325.878 c-9.1469727 0-14.4111328-5.5400391-14.4111328-5.5400391l4.3041992-82.3037109c0 0-10.184082-6.5302734-11.9902344-10.6845703 c-1.8066406-4.1552734-1.5380859-16.421875 0-20.5761719c1.5371094-4.1542969 13.2197266-11.8710938 13.2197266-11.8710938 v23.7421875h8.8774414 M-234.0961914 325.8779297c9.1469727 0 14.4125977-5.5400391 14.4125977-5.5400391l-4.3046875-82.3037109 c0 0 10.1845703-6.5302734 11.9902344-10.6845703c1.8066406-4.1552734 1.5380859-16.421875 0-20.5761719 c-1.5371094-4.1542969-13.2197266-11.8710938-13.2197266-11.8710938v23.7421875h-8.878418" class="style0"/><circle cx="-234.096" cy="316.516" r="3.828" class="style2"/></svg>