<svg xmlns="http://www.w3.org/2000/svg" xmlns:xlink="http://www.w3.org/1999/xlink" version="1.1" id="Layer_1" x="0px" y="0px" width="200px" height="178px" viewBox="0 0 200 178" enable-background="new 0 0 200 178" xml:space="preserve">
<polyline fill="none" stroke="#BDCCD4" stroke-width="4" stroke-miterlimit="10" points="194,6.4 22.2,128.6 6,30.2 180,128.6 190.1,61.1"/>
<g>
	<path fill="#BDCCD4" d="M15.9633789 167.0961914h1.9643555v-20.5717773h-1.9643555v-2.2143555h7.5 c1.7143555 0 3.3 0.3 4.9 0.875c1.5234375 0.6 2.9 1.4 4 2.5 s2.0473633 2.4 2.7 3.9462891c0.6665039 1.5 1 3.3 1 5.2 c0 1.4047852-0.2441406 2.8452148-0.7319336 4.3212891c-0.4882813 1.4765625-1.2802734 2.815918-2.375 4 c-1.0957031 1.2026367-2.5180664 2.190918-4.2680664 2.9643555c-1.75 0.7739258-3.887207 1.1606445-6.4111328 1.1606445h-6.2856445 V167.0961914z M20.1420898 146.5244141v20.5717773h2.7856445c1.6904297 0 3.2084961-0.2719727 4.5537109-0.815918 c1.3447266-0.543457 2.487793-1.2768555 3.4287109-2.1987305c0.9404297-0.921875 1.6606445-2.0092773 2.1606445-3.2626953 s0.75-2.5893555 0.75-4.0083008c0-1.5605469-0.2739258-2.9794922-0.8212891-4.2563477 c-0.5478516-1.2768555-1.2983398-2.3583984-2.25-3.2451172c-0.9526367-0.8867188-2.0717773-1.5727539-3.3574219-2.0576172 c-1.2856445-0.484375-2.6552734-0.7270508-4.1069336-0.7270508H20.1420898z"/>
	<path fill="#BDCCD4" d="M42.105957 167.203125h2.2856445v-20.6787109H42.105957v-2.2143555h17.3930664v5.5H57.284668v-3.2856445 H46.605957v9.1430664h11.5004883v2.1069336H46.605957v9.4287109H57.784668v-3.3925781h2.2143555v5.5H42.105957V167.203125z"/>
	<path fill="#BDCCD4" d="M99.6064453 158.6674805v9.2143555c-0.9526367 0.5483398-1.9707031 0.9824219-3.0537109 1.3 c-1.0839844 0.3212891-2.2324219 0.4819336-3.4462891 0.4819336c-1.7626953 0-3.4169922-0.3334961-4.9648438-1 c-1.5478516-0.6660156-2.8989258-1.5766602-4.0532227-2.7319336c-1.1552734-1.1547852-2.065918-2.5058594-2.7324219-4.0537109 c-0.6669922-1.5473633-1-3.2021484-1-4.9643555c0-1.7617188 0.3330078-3.4223633 1-4.9824219 c0.6665039-1.559082 1.5771484-2.9160156 2.7324219-4.0712891c1.1542969-1.1547852 2.5053711-2.0712891 4.0532227-2.75 s3.2021484-1.0180664 4.9648438-1.0180664c1.2138672 0 2.4 0.2 3.4 0.5 c1.0830078 0.3 2.1 0.8 3.1 1.3212891l-1.25 1.8 c-1.5957031-0.9287109-3.3574219-1.3930664-5.2856445-1.3930664c-1.4526367 0-2.815918 0.2792969-4.0893555 0.8 c-1.2744141 0.5581055-2.3876953 1.3232422-3.3393555 2.2958984c-0.9526367 0.9731445-1.7089844 2.105957-2.2680664 3.4 c-0.5595703 1.293457-0.8393555 2.6630859-0.8393555 4.1108398c0 1.5 0.3 2.8 0.8 4.1 c0.5473633 1.3 1.3 2.4 2.2 3.3642578c0.9521484 1 2.1 1.7 3.3 2.3 c1.2734375 0.6 2.6 0.8 4.1 0.8364258c1.5478516 0 2.987793-0.3183594 4.3217773-0.9541016v-5.7246094 h-4.4287109v-2.2143555H99.6064453z"/>
	<path fill="#BDCCD4" d="M105.6777344 167.203125h2.2851563v-20.6787109h-2.2851563v-2.2143555h17.3925781v5.5h-2.2148438 v-3.2856445h-10.6777344v9.1430664h11.5v2.1069336h-11.5v9.4287109h11.1777344v-3.3925781h2.2148438v5.5h-17.8925781V167.203125z"/>
	<path fill="#BDCCD4" d="M129.6425781 167.203125h2.7851563v-20.6787109h-2.7851563v-2.2143555h7.8925781v2.2143555h-2.8925781 v20.6787109h2.8925781v2.1074219h-7.8925781V167.203125z"/>
	<path fill="#BDCCD4" d="M143.3925781 166.3105469v-3.9643555h2.2128906v3.1787109 c0.6386719 0.5 1.4 1 2.3 1.3925781c0.8984375 0.4 1.9 0.6 3.1 0.6 c0.7089844 0 1.3886719-0.1074219 2.0390625-0.3217773s1.2246094-0.5234375 1.7207031-0.9282227 c0.4980469-0.4047852 0.9003906-0.9111328 1.2070313-1.5180664c0.3085938-0.6069336 0.4609375-1.2915039 0.4609375-2.0537109 c0-1.309082-0.2910156-2.3212891-0.875-3.0356445c-0.5820313-0.7143555-1.3203125-1.2680664-2.2128906-1.6606445 c-0.8925781-0.3930664-1.8574219-0.7202148-2.8925781-0.9824219c-1.0371094-0.2617188-2.0078125-0.612793-2.9121094-1.0537109 c-0.9042969-0.4399414-1.6601563-1.0410156-2.2675781-1.8032227c-0.6074219-0.7617188-0.9355469-1.8574219-0.9824219-3.2861328 c-0.0234375-0.7856445 0.078125-1.5766602 0.3046875-2.375c0.2246094-0.7973633 0.6054688-1.5117188 1.1425781-2.1425781 c0.5351563-0.6308594 1.2382813-1.1484375 2.1074219-1.5537109c0.8691406-0.4047852 1.9335938-0.6074219 3.1953125-0.6074219 c0.8339844 0 1.8 0.1 2.9 0.3393555c1.0722656 0.2 2.1 0.8 3.2 1.625v3.6787109 h-2.2148438v-2.5541992c-0.4492188-0.2558594-1.0039063-0.4658203-1.6640625-0.6293945 c-0.6601563-0.1630859-1.4042969-0.2451172-2.2304688-0.2451172c-0.7558594 0-1.4179688 0.1245117-1.984375 0.4 c-0.5664063 0.2475586-1.03125 0.5722656-1.3984375 0.9736328c-0.3652344 0.4018555-0.6445313 0.8681641-0.8320313 1.4 c-0.1894531 0.53125-0.2832031 1.0922852-0.2832031 1.6821289c0 1 0.3 1.8 0.9 2.4 c0.5957031 0.5 1.3 1 2.2 1.3286133s1.8632813 0.7 2.9 0.9 c1.0488281 0.3 2 0.7 2.9 1.2324219c0.9042969 0.5 1.7 1.3 2.3 2.2 c0.6074219 0.9 0.9 2.2 0.9 3.7680664c0 1.0712891-0.1953125 2.0356445-0.5898438 2.9 c-0.3925781 0.8569336-0.9277344 1.5893555-1.6054688 2.1962891c-0.6796875 0.6074219-1.4707031 1.0712891-2.375 1.4 c-0.90625 0.3212891-1.8710938 0.4819336-2.8945313 0.4819336c-0.9277344 0-1.796875-0.0952148-2.6054688-0.2856445 c-0.8105469-0.1904297-1.5546875-0.4462891-2.2324219-0.7680664c-0.6796875-0.3212891-1.2753906-0.6723633-1.7871094-1.0532227 S143.6777344 166.7 143.4 166.3105469z"/>
	<path fill="#BDCCD4" d="M170.0703125 167.203125h3v-20.6787109h-6.6777344v3.2856445h-2.1074219v-5.5h19.75v5.5h-2.2148438 v-3.2856445h-6.5351563v20.6787109H178v2.1074219h-7.9296875V167.203125z"/>
</g>
</svg>
