<svg xmlns="http://www.w3.org/2000/svg" width="200" height="178" viewBox="0 0 200 178"><path fill="none" stroke="#BDCCD4" stroke-width="4" stroke-miterlimit="10" d="M194 6.4L22.2 128.6 6 30.2l174 98.4 10.1-67.5"/><g fill="#BDCCD4"><path d="M15.963 167.096h1.965v-20.572h-1.965v-2.214h7.5c1.715 0 3.3.3 4.9.875 1.524.6 2.9 1.4 4 2.5s2.048 2.4 2.7 3.946c.667 1.5 1 3.3 1 5.2 0 1.406-.244 2.847-.732 4.323-.487 1.476-1.28 2.816-2.374 4-1.095 1.202-2.518 2.19-4.268 2.964s-3.887 1.16-6.41 1.16H15.99v-2.18zm4.18-20.572v20.572h2.785c1.69 0 3.208-.272 4.553-.816 1.346-.543 2.49-1.277 3.43-2.198.94-.922 1.66-2.01 2.16-3.263s.75-2.59.75-4.01c0-1.56-.273-2.98-.82-4.256-.548-1.277-1.3-2.358-2.25-3.245-.953-.888-2.072-1.574-3.358-2.06-1.286-.483-2.655-.726-4.107-.726h-3.143zM42.106 167.203h2.286v-20.68h-2.286v-2.213H59.5v5.5h-2.215v-3.286h-10.68v9.143h11.5v2.107h-11.5v9.43h11.18v-3.393H60v5.5H42.105v-2.107zM99.606 158.667v9.215c-.952.548-1.97.982-3.053 1.3-1.084.32-2.233.482-3.447.482-1.762 0-3.417-.334-4.964-1-1.548-.666-2.9-1.577-4.054-2.732-1.155-1.155-2.066-2.506-2.732-4.054-.667-1.547-1-3.202-1-4.964 0-1.762.333-3.423 1-4.983.666-1.558 1.577-2.915 2.732-4.07 1.155-1.155 2.506-2.07 4.054-2.75s3.202-1.018 4.964-1.018c1.214 0 2.4.2 3.4.5 1.083.3 2.1.8 3.1 1.32l-1.25 1.8c-1.595-.927-3.357-1.392-5.285-1.392-1.452 0-2.815.28-4.09.8-1.273.558-2.386 1.323-3.338 2.296-.953.973-1.71 2.106-2.268 3.4-.56 1.294-.84 2.663-.84 4.11 0 1.5.3 2.8.8 4.1.548 1.3 1.3 2.4 2.2 3.365.953 1 2.1 1.7 3.3 2.3 1.274.6 2.6.8 4.1.838 1.55 0 2.988-.32 4.322-.954v-5.725h-4.428v-2.215h6.778zM105.678 167.203h2.285v-20.68h-2.285v-2.213h17.392v5.5h-2.215v-3.286h-10.677v9.143h11.5v2.107h-11.5v9.43h11.177v-3.393h2.215v5.5h-17.892v-2.107zM129.643 167.203h2.785v-20.68h-2.785v-2.213h7.892v2.214h-2.892v20.68h2.892v2.107h-7.892v-2.107zM143.393 166.31v-3.964h2.212v3.18c.64.5 1.4 1 2.3 1.39.9.4 1.9.6 3.1.6.71 0 1.39-.106 2.04-.32s1.224-.524 1.72-.93c.498-.403.9-.91 1.207-1.517.31-.608.46-1.292.46-2.054 0-1.31-.29-2.322-.874-3.036-.582-.714-1.32-1.268-2.213-1.66-.892-.394-1.857-.72-2.892-.983-1.037-.262-2.008-.613-2.912-1.054-.904-.44-1.66-1.04-2.267-1.803-.607-.762-.935-1.857-.982-3.286-.023-.786.08-1.577.305-2.375.225-.798.606-1.513 1.143-2.144.535-.63 1.238-1.148 2.107-1.553.87-.405 1.934-.608 3.196-.608.835 0 1.8.1 2.9.34 1.073.2 2.1.8 3.2 1.625v3.678h-2.214v-2.554c-.45-.256-1.004-.466-1.664-.63-.66-.162-1.405-.244-2.23-.244-.757 0-1.42.124-1.985.4-.567.247-1.03.572-1.4.973-.364.402-.643.868-.83 1.4-.19.53-.284 1.092-.284 1.682 0 1 .3 1.8.9 2.4.596.5 1.3 1 2.2 1.33s1.863.7 2.9.9c1.05.3 2 .7 2.9 1.23.904.5 1.7 1.3 2.3 2.2.608.9.9 2.2.9 3.77 0 1.07-.195 2.035-.59 2.9-.392.856-.927 1.59-1.605 2.196-.68.608-1.47 1.072-2.375 1.4-.906.322-1.87.483-2.895.483-.927 0-1.797-.096-2.605-.286-.81-.19-1.555-.446-2.233-.768-.68-.322-1.275-.673-1.787-1.054s-.865-.866-1.143-1.255zM170.07 167.203h3v-20.68h-6.677v3.287h-2.108v-5.5h19.75v5.5h-2.215v-3.286h-6.535v20.68H178v2.107h-7.93v-2.107z"/></g></svg>