<svg xmlns="http://www.w3.org/2000/svg" xmlns:xlink="http://www.w3.org/1999/xlink" version="1.1" id="Layer_1" x="0px" y="0px" width="150px" height="150px" viewBox="0 0 150 150" enable-background="new 0 0 150 150" xml:space="preserve">
<g>
	<polyline fill="none" stroke="#5B8D96" stroke-width="2" stroke-miterlimit="2" points="75,133.2 61.2,133.2 61.2,117.5 75,117.5"/>
	<path fill="#5B8D96" stroke="#5B8D96" stroke-width="2" stroke-miterlimit="2" d="M75.3359375 139.2128906h-9.3544922 c0.6352539 2.9 9.4 3.9 9.4 3.9"/>
	<path fill="none" stroke="#5B8D96" stroke-width="2" stroke-miterlimit="2" d="M75.0888672 141.5"/>
	<path fill="#5B8D96" stroke="#5B8D96" stroke-width="2" stroke-miterlimit="2" d="M75.0429688 137.6"/>
	<path fill="none" stroke="#5B8D96" stroke-width="2" stroke-miterlimit="2" d="M75.0429688 6.9 c0 0-35.949707-1.078125-37.0009766 40.4746094c-1.0512695 41.6 22.2 27.8 19 61.8 l1.265625 2.1054688h16.7666016"/>
	<path fill="none" stroke="#5B8D96" stroke-width="2" stroke-miterlimit="2" d="M75.0429688 117.5"/>
	<path fill="none" stroke="#5B8D96" stroke-width="2" stroke-miterlimit="2" d="M75.0429688 117.5"/>
	<path fill="none" stroke="#5B8D96" stroke-width="2" stroke-miterlimit="2" d="M75.0429688 117.5"/>
	<polyline fill="none" stroke="#5B8D96" stroke-width="2" stroke-miterlimit="2" points="75,133.2 88.8,133.2 88.8,117.5 75,117.5"/>
	<path fill="#5B8D96" stroke="#5B8D96" stroke-width="2" stroke-miterlimit="2" d="M74.7666016 143.1 c0 0 8.875-0.9980469 9.5117188-3.8808594h-9.3544922"/>
	<path fill="none" stroke="#5B8D96" stroke-width="2" stroke-miterlimit="2" d="M74.9121094 141.5"/>
	<path fill="#5B8D96" stroke="#5B8D96" stroke-width="2" stroke-miterlimit="2" d="M74.9570313 137.6"/>
	<path fill="none" stroke="#5B8D96" stroke-width="2" stroke-miterlimit="2" d="M75.3359375 76.3 c0 0 4.1884766-11.5498047 7.6083984-19.7070313c3.421875-8.1572266 8.5507813-5.8212891 10.3 0.3 c1.7109375 6.0859375-14.734375 20.2607422-18.5166016 21.3134766s-14.1098633-9.9990234-14.8994141-13.1572266 c-0.7890625-3.15625-1.5786133-6.3476563 2.8945313-9.9980469S75 68.7 75 68.7314453l-0.0058594 6.3 l-0.0371094 36.2866211h16.7666016l1.265625-2.1054688c-3.2597656-33.9975586 20.0195313-20.2910156 18.96875-61.8427734 C110.9052734 5.8 75 6.9 75 6.9"/>
	<path fill="none" stroke="#5B8D96" stroke-width="2" stroke-miterlimit="2" d="M74.9570313 117.5"/>
	<path fill="none" stroke="#5B8D96" stroke-width="2" stroke-miterlimit="2" d="M74.9570313 117.5"/>
	<path fill="none" stroke="#5B8D96" stroke-width="2" stroke-miterlimit="2" d="M74.9570313 117.5"/>
	
		<line fill="none" stroke="#5B8D96" stroke-width="2" stroke-miterlimit="2" x1="61.3" y1="127.8" x2="88.9" y2="127.8"/>
	
		<line fill="none" stroke="#5B8D96" stroke-width="2" stroke-miterlimit="2" x1="61.5" y1="122.9" x2="89.2" y2="122.9"/>
</g>
<path fill="none" stroke="#5B8D96" stroke-width="2" stroke-miterlimit="2" d="M-234.0961914 325.9 c-9.1469727 0-14.4111328-5.5400391-14.4111328-5.5400391l4.3041992-82.3037109c0 0-10.184082-6.5302734-11.9902344-10.6845703 c-1.8066406-4.1552734-1.5380859-16.421875 0-20.5761719c1.5371094-4.1542969 13.2197266-11.8710938 13.2197266-11.8710938 v23.7421875h8.8774414 M-234.0961914 325.8779297c9.1469727 0 14.4125977-5.5400391 14.4125977-5.5400391l-4.3046875-82.3037109 c0 0 10.1845703-6.5302734 11.9902344-10.6845703c1.8066406-4.1552734 1.5380859-16.421875 0-20.5761719 c-1.5371094-4.1542969-13.2197266-11.8710938-13.2197266-11.8710938v23.7421875h-8.878418"/>
<circle fill="#FFFFFF" stroke="#5B8D96" stroke-width="2" stroke-miterlimit="2" cx="-234.1" cy="316.5" r="3.8"/>
</svg>
