<svg xmlns="http://www.w3.org/2000/svg" xmlns:xlink="http://www.w3.org/1999/xlink" xmlns:a="http://ns.adobe.com/AdobeSVGViewerExtensions/3.0/" version="1.2" baseProfile="tiny" x="0px" y="0px" width="152px" height="152px" viewBox="0 0 152 152" xml:space="preserve">
<defs>
</defs>
<path fill="#5B8D96" d="M58 72.3056641V59h12.887207L58 72.3056641z M60 61v6.3662109L66.1655273 61H60z"/>
<path fill="#5B8D96" d="M93 71.2724609L81.1132813 59H93V71.2724609z M85.8339844 61L91 66.3330078V61H85.8339844z"/>
<path fill="#5B8D96" d="M85.8339844 55h-19.668457L76 44.8457031L85.8339844 55z M70.887207 53h10.2260742L76 47.721 L70.887207 53z"/>
<path fill="#5B8D96" d="M71.8544922 94H58V79.6938477L71.8544922 94z M60 92h7.1337891L60 84.6337891V92z"/>
<path fill="#5B8D96" d="M55 84.6337891L46.637207 76L55 67.3662109V84.6337891z M49.4213867 76L53 79.6943359v-7.3886719 L49.4213867 76z"/>
<path fill="#5B8D96" d="M93 94H80.1455078L93 80.7275391V94z M84.8662109 92H91v-6.3330078L84.8662109 92z"/>
<path fill="#5B8D96" d="M76 106.1542969L67.1333008 97h17.7329102L76 106.1542969z M71.8549805 99L76 103.2792969L80.1455078 99 H71.8549805z"/>
<path fill="#5B8D96" d="M152 94h-23.9882813L110.578125 76l16.4648438-17H152V94z M128.859375 92H150V61h-22.109375l-14.5273438 15 L128.859375 92z"/>
<path fill="#5B8D96" d="M23.9882813 93H0V58h24.9570313l16.4643555 17L23.9882813 93z M2 91h21.140625l15.496582-16L24.109375 60H2 V91z"/>
<path fill="#5B8D96" d="M60 61H37.109375L19.5996094 42.9208984l25.140625-24.3505859L60 34.3256836V61z M37.9570313 59H58 V35.1352539L44.6953125 21.3984375L22.4277344 42.9658203L37.9570313 59z"/>
<path fill="#5B8D96" d="M107.2587891 133.4296875L91 116.6425781V92h24.859375l16.5410156 17.0791016L107.2587891 133.4296875z M93 115.8320313l14.3037109 14.7695313l22.2685547-21.5673828L115.0117188 94H93V115.8320313z"/>
<path fill="#5B8D96" d="M94 152H59v-22.1357422l18-18.5849609l17 17.5527344V152z M61 150h31v-20.3574219l-15-15.4882813 l-16 16.5205078V150z"/>
<path fill="#5B8D96" d="M44.7412109 133.4296875l-25.1416016-24.3505859L36.140625 92H60v25.6748047L44.7412109 133.4296875z M22.4277344 109.0341797l22.2685547 21.5673828L58 116.8642578V94H36.9882813L22.4277344 109.0341797z"/>
<path fill="#5B8D96" d="M97 85.6669922V66.3330078L106.3632813 76L97 85.6669922z M99 71.2724609v9.4550781L103.578125 76 L99 71.2724609z"/>
<path fill="#5B8D96" d="M76 40.7207031L58 22.1352539V0h35v23.168457L76 40.7207031z M60 21.3256836l16 16.5200195l15-15.4868164V2 H60V21.3256836z"/>
<path fill="#5B8D96" d="M114.890625 61H91V35.3588867l16.2597656-16.7885742l25.140625 24.3505859L114.890625 61z M93 59h21.0429688 l15.5292969-16.0341797l-22.2675781-21.5673828L93 36.168457V59z"/>
</svg>
