<svg xmlns="http://www.w3.org/2000/svg" xmlns:xlink="http://www.w3.org/1999/xlink" version="1.1" x="0px" y="0px" width="150px" height="150px" viewBox="0 0 150 150" enable-background="new 0 0 150 150" xml:space="preserve"><style>.style0{stroke:	#5B8D96;stroke-width:	3;stroke-miterlimit:	2;fill:	none;}.style1{stroke:	#5B8D96;stroke-width:	3;stroke-miterlimit:	2;fill:	#5B8D96;}.style2{stroke:	#5B8D96;stroke-width:	2;stroke-miterlimit:	2;fill:	none;}.style3{stroke:	#5B8D96;stroke-width:	2;stroke-miterlimit:	2;fill:	#FFFFFF;}.style4{stroke:	#5B8D96;stroke-width:	2;stroke-miterlimit:	10;fill:	none;}.style5{stroke:	#5B8D96;stroke-width:	2;stroke-miterlimit:	10;}</style><g><g><polyline points="-229.297,123.892 -243.174,123.892 -243.174,108.198 -229.297,108.198" class="style0"/><path d="M-229.0039063 129.9423828h-9.3549805 c0.6352539 2.884 9.355 3.881 9.355 3.881" class="style1"/><path d="M-229.2514648 132.246" class="style0"/><path d="M-229.2973633 128.363" class="style1"/><path d="M-229.2973633-2.3613281 c0 0-35.949707-1.078125-37.0009766 40.4746094s22.2275391 27.846 18.969 61.84375l1.265625 2.1044922h16.7666016" class="style0"/><path d="M-229.2973633 108.198" class="style0"/><path d="M-229.2973633 108.198" class="style0"/><path d="M-229.2973633 108.198" class="style0"/><polyline points="-229.383,123.892 -215.506,123.892 -215.506,108.198 -229.383,108.198" class="style0"/><path d="M-229.5737305 133.824 c0 0 8.8759766-0.9980469 9.5117188-3.8818359h-9.3549805" class="style1"/><path d="M-229.4287109 132.246" class="style0"/><path d="M-229.3828125 128.363" class="style1"/><path d="M-227.7612305 64.941 c0 0 2.9453125-9.4277344 6.3662109-17.5849609s8.5507813-5.8212891 10.262 0.263 c1.7099609 6.0859375-14.7353516 20.2617188-18.5180664 21.313 c-3.7817383 1.0527344-14.109375-9.9990234-14.8989258-13.1572266c-0.7890625-3.15625-1.5786133-6.3476563 2.8945313-9.9980469 s12.3154297 13.684 12.315 13.6835938l-0.0063477 6.3144531l-0.0361328 36.2861328h16.7670898l1.265625-2.1044922 c-3.2597656-33.9980469 20.0195313-20.2910156 18.96875-61.84375 c-1.0527344-41.5527344-37.0014648-40.4746094-37.0014648-40.4746094" class="style0"/><path d="M-229.3828125 108.198" class="style0"/><path d="M-229.3828125 108.198" class="style0"/><path d="M-229.3828125 108.198" class="style0"/><line x1="-243.084" y1="118.487" x2="-215.418" y2="118.487" class="style0"/><line x1="-242.837" y1="113.663" x2="-215.171" y2="113.663" class="style0"/></g><path d="M-234.0961914 325.878 c-9.1469727 0-14.4111328-5.5400391-14.4111328-5.5400391l4.3041992-82.3037109c0 0-10.184082-6.5302734-11.9902344-10.6845703 c-1.8066406-4.1552734-1.5380859-16.421875 0-20.5761719c1.5371094-4.1542969 13.2197266-11.8710938 13.2197266-11.8710938 v23.7421875h8.8774414 M-234.0961914 325.8779297c9.1469727 0 14.4125977-5.5400391 14.4125977-5.5400391l-4.3046875-82.3037109 c0 0 10.1845703-6.5302734 11.9902344-10.6845703c1.8066406-4.1552734 1.5380859-16.421875 0-20.5761719 c-1.5371094-4.1542969-13.2197266-11.8710938-13.2197266-11.8710938v23.7421875h-8.878418" class="style2"/><circle cx="-234.096" cy="316.516" r="3.828" class="style3"/></g><g><polyline points="-235,-48.942 -228.5,-64.96 -228.5,-170.5 -233.871,-170.5 -241.5,-170.5 -241.5,-64.96 -235,-48.942" class="style0"/><polyline points="-228.5,-170 -228.5,-174.5 -241.5,-174.5 -241.5,-170" class="style0"/><path d="M-227.5654297-176.6337891" class="style0"/><polyline points="-241,-166.5 -226.992,-166.5 -240.463,-166.5 -227,-166.5" class="style0"/><path d="M-240.1767578-63.9599609 c0 0 5.9223633-1.4775391 12.611 0" class="style0"/><g><path d="M-241.25-178.7949219v-6.4511719 c0 0 3.0180664-2.3535156 6.5-2.375 M-234.75-186.9941406 M-228.25-178.7949219v-6.4511719c0 0-3.0185547-2.3535156-6.5-2.375 M-234.1591797-186.9941406" class="style0"/><line x1="-241.25" y1="-180.289" x2="-228.25" y2="-180.289" class="style0"/></g><polygon points="-237.289,-55.5 -234.75,-48.652 -232.211,-55.5" class="style1"/><path d="M-234.75-166.2265625" class="style0"/><g><polyline points="75.5,144.83 82,128.668 82,22 76.385,22 69,22 69,128.668 75.5,144.83" class="style4"/><polyline points="82,22 82,16 69,16 69,22" class="style4"/><path d="M81.6953125 16.034" class="style4"/><polyline points="69,19 83,19 69.772,19 83,19" class="style4"/><path d="M70.0737305 128.801 c0 0 5.9282227-1.4785156 12.622 0" class="style4"/><polyline points="68,25 82.27,25 69.074,25 82,25" class="style4"/><path d="M68.9882813 13.7392578V7.4755859 c0 0 3.0224609-2.284668 6.5092773-2.3061523 M75.4975586 5.778 M82.0097656 13.7392578V7.4755859 c0 0-3.0234375-2.284668-6.512207-2.3061523 M76.0898438 5.778 M68.4482422 12.7788086h14.2050781" class="style4"/><polygon points="74.353,141.861 76.647,141.861 75.5,144.83" class="style5"/><line x1="78" y1="25" x2="78" y2="128" class="style5"/><line x1="73" y1="25" x2="73" y2="128" class="style5"/></g></g></svg>