<svg xmlns="http://www.w3.org/2000/svg" xmlns:xlink="http://www.w3.org/1999/xlink" version="1.1" x="0px" y="0px" width="150px" height="150px" viewBox="0 0 150 150" enable-background="new 0 0 150 150" xml:space="preserve"><style>.style0{stroke:	#5B8D96;stroke-width:	3;stroke-miterlimit:	2;fill:	none;}.style1{stroke:	#5B8D96;stroke-width:	3;stroke-miterlimit:	2;fill:	#5B8D96;}.style2{stroke:	#5B8D96;stroke-width:	2;stroke-miterlimit:	2;fill:	none;}.style3{stroke:	#5B8D96;stroke-width:	2;stroke-miterlimit:	2;fill:	#FFFFFF;}</style><g><polyline points="-233.819,129.353 -247.696,129.353 -247.696,113.659 -233.819,113.659" class="style0"/><path d="M-233.5258789 135.4033203h-9.3549805 c0.6352539 2.884 9.355 3.881 9.355 3.881" class="style1"/><path d="M-233.7734375 137.707" class="style0"/><path d="M-233.8193359 133.824" class="style1"/><path d="M-233.8193359 3.1 c0 0-35.949707-1.078125-37.0009766 40.4746094s22.2275391 27.846 18.969 61.84375l1.265625 2.1044922h16.7666016" class="style0"/><path d="M-233.8193359 113.659" class="style0"/><path d="M-233.8193359 113.659" class="style0"/><path d="M-233.8193359 113.659" class="style0"/><polyline points="-233.905,129.353 -220.028,129.353 -220.028,113.659 -233.905,113.659" class="style0"/><path d="M-234.0957031 139.285 c0 0 8.8759766-0.9980469 9.5117188-3.8818359h-9.3549805" class="style1"/><path d="M-233.9506836 137.707" class="style0"/><path d="M-233.9047852 133.824" class="style1"/><path d="M-232.2832031 70.402 c0 0 2.9453125-9.4277344 6.3662109-17.5849609s8.5507813-5.8212891 10.262 0.263 c1.7099609 6.0859375-14.7353516 20.2617188-18.5180664 21.313 c-3.7817383 1.0527344-14.109375-9.9990234-14.8989258-13.1572266c-0.7890625-3.15625-1.5786133-6.3476563 2.8945313-9.9980469 s12.3154297 13.684 12.315 13.6835938l-0.0063477 6.3144531l-0.0361328 36.2861328h16.7670898l1.265625-2.1044922 c-3.2597656-33.9980469 20.0195313-20.2910156 18.96875-61.84375 c-1.0527344-41.5527344-37.0014648-40.4746094-37.0014648-40.4746094" class="style0"/><path d="M-233.9047852 113.659" class="style0"/><path d="M-233.9047852 113.659" class="style0"/><path d="M-233.9047852 113.659" class="style0"/><line x1="-247.606" y1="123.948" x2="-219.94" y2="123.948" class="style0"/><line x1="-247.359" y1="119.124" x2="-219.693" y2="119.124" class="style0"/></g><path d="M74.9995117 141.365 c-9.1469727 0-14.4111328-5.5400391-14.4111328-5.5400391l4.3041992-82.3037109c0 0-10.184082-6.5297852-11.9902344-10.6845703 c-1.8066406-4.1552734-1.5380859-16.4213867 0-20.5756836c1.5371094-4.1547852 13.2197266-11.8710938 13.2197266-11.8710938 v23.7416992h8.8774414 M74.9995117 141.3652344c9.1469727 0 14.4125977-5.5400391 14.4125977-5.5400391l-4.3046875-82.3037109 c0 0 10.1845703-6.5297852 11.9902344-10.6845703c1.8066406-4.1552734 1.5380859-16.4213867 0-20.5756836 c-1.5371094-4.1547852-13.2197266-11.8710938-13.2197266-11.8710938v23.7416992h-8.878418" class="style2"/><circle cx="75" cy="132.003" r="3.828" class="style3"/></svg>